<mxfile host="app.diagrams.net" modified="2021-04-28T13:57:15.738Z" agent="5.0 (Macintosh; Intel Mac OS X 10_13_6) AppleWebKit/537.36 (KHTML, like Gecko) Chrome/92.0.4484.7 Safari/537.36" etag="GaUpHkDaclek4g4IfVMs" version="14.6.3" type="github">
  <diagram id="BpPXvHwoTPbORTTAu0l3" name="Page-1">
    <mxGraphModel dx="1426" dy="736" grid="1" gridSize="10" guides="1" tooltips="1" connect="1" arrows="1" fold="1" page="1" pageScale="1" pageWidth="827" pageHeight="1169" math="0" shadow="0">
      <root>
        <mxCell id="0" />
        <mxCell id="1" parent="0" />
        <mxCell id="rqvPw6dg4gifr-5zR3yJ-35" value="" style="rounded=0;whiteSpace=wrap;html=1;fillColor=none;dashed=1;" vertex="1" parent="1">
          <mxGeometry x="110" y="440" width="390" height="380" as="geometry" />
        </mxCell>
        <mxCell id="rqvPw6dg4gifr-5zR3yJ-7" value="" style="rounded=0;whiteSpace=wrap;html=1;fillColor=none;dashed=1;" vertex="1" parent="1">
          <mxGeometry x="130" y="260" width="310" height="160" as="geometry" />
        </mxCell>
        <mxCell id="rqvPw6dg4gifr-5zR3yJ-5" style="edgeStyle=orthogonalEdgeStyle;rounded=0;orthogonalLoop=1;jettySize=auto;html=1;entryX=0.5;entryY=0;entryDx=0;entryDy=0;" edge="1" parent="1" source="rqvPw6dg4gifr-5zR3yJ-1" target="rqvPw6dg4gifr-5zR3yJ-2">
          <mxGeometry relative="1" as="geometry" />
        </mxCell>
        <mxCell id="rqvPw6dg4gifr-5zR3yJ-1" value="配置1、11、21" style="rounded=0;whiteSpace=wrap;html=1;" vertex="1" parent="1">
          <mxGeometry x="220" y="270" width="120" height="30" as="geometry" />
        </mxCell>
        <mxCell id="rqvPw6dg4gifr-5zR3yJ-12" style="edgeStyle=orthogonalEdgeStyle;rounded=0;orthogonalLoop=1;jettySize=auto;html=1;entryX=0.5;entryY=0;entryDx=0;entryDy=0;" edge="1" parent="1" source="rqvPw6dg4gifr-5zR3yJ-2" target="rqvPw6dg4gifr-5zR3yJ-10">
          <mxGeometry relative="1" as="geometry" />
        </mxCell>
        <mxCell id="rqvPw6dg4gifr-5zR3yJ-15" style="rounded=0;orthogonalLoop=1;jettySize=auto;html=1;entryX=0;entryY=0.5;entryDx=0;entryDy=0;dashed=1;" edge="1" parent="1" source="rqvPw6dg4gifr-5zR3yJ-2" target="rqvPw6dg4gifr-5zR3yJ-14">
          <mxGeometry relative="1" as="geometry" />
        </mxCell>
        <mxCell id="rqvPw6dg4gifr-5zR3yJ-2" value="定时生成下个月的周期段" style="rounded=0;whiteSpace=wrap;html=1;" vertex="1" parent="1">
          <mxGeometry x="190" y="340" width="180" height="50" as="geometry" />
        </mxCell>
        <mxCell id="rqvPw6dg4gifr-5zR3yJ-6" style="edgeStyle=orthogonalEdgeStyle;rounded=0;orthogonalLoop=1;jettySize=auto;html=1;entryX=0.5;entryY=0;entryDx=0;entryDy=0;" edge="1" parent="1" source="rqvPw6dg4gifr-5zR3yJ-4" target="rqvPw6dg4gifr-5zR3yJ-1">
          <mxGeometry relative="1" as="geometry" />
        </mxCell>
        <mxCell id="rqvPw6dg4gifr-5zR3yJ-4" value="开始" style="ellipse;whiteSpace=wrap;html=1;" vertex="1" parent="1">
          <mxGeometry x="230" y="190" width="100" height="50" as="geometry" />
        </mxCell>
        <mxCell id="rqvPw6dg4gifr-5zR3yJ-8" value="生成周期段的定时任务" style="text;html=1;strokeColor=none;fillColor=none;align=center;verticalAlign=middle;whiteSpace=wrap;rounded=0;dashed=1;" vertex="1" parent="1">
          <mxGeometry x="370" y="290" width="66" height="20" as="geometry" />
        </mxCell>
        <mxCell id="rqvPw6dg4gifr-5zR3yJ-13" value="Y" style="edgeStyle=orthogonalEdgeStyle;rounded=0;orthogonalLoop=1;jettySize=auto;html=1;entryX=0.5;entryY=0;entryDx=0;entryDy=0;" edge="1" parent="1" source="rqvPw6dg4gifr-5zR3yJ-10" target="rqvPw6dg4gifr-5zR3yJ-11">
          <mxGeometry relative="1" as="geometry" />
        </mxCell>
        <mxCell id="rqvPw6dg4gifr-5zR3yJ-34" value="N&lt;br&gt;" style="edgeStyle=orthogonalEdgeStyle;rounded=0;orthogonalLoop=1;jettySize=auto;html=1;entryX=0.5;entryY=0;entryDx=0;entryDy=0;" edge="1" parent="1" source="rqvPw6dg4gifr-5zR3yJ-10" target="rqvPw6dg4gifr-5zR3yJ-32">
          <mxGeometry relative="1" as="geometry">
            <mxPoint x="60" y="485" as="targetPoint" />
            <Array as="points">
              <mxPoint x="130" y="485" />
              <mxPoint x="130" y="810" />
              <mxPoint x="282" y="810" />
            </Array>
          </mxGeometry>
        </mxCell>
        <mxCell id="rqvPw6dg4gifr-5zR3yJ-10" value="任务启动日期是否为某个周期段的开始日期" style="rhombus;whiteSpace=wrap;html=1;fillColor=none;" vertex="1" parent="1">
          <mxGeometry x="181.25" y="450" width="197.5" height="70" as="geometry" />
        </mxCell>
        <mxCell id="rqvPw6dg4gifr-5zR3yJ-27" style="edgeStyle=none;rounded=0;orthogonalLoop=1;jettySize=auto;html=1;entryX=0.5;entryY=0;entryDx=0;entryDy=0;" edge="1" parent="1" source="rqvPw6dg4gifr-5zR3yJ-11" target="rqvPw6dg4gifr-5zR3yJ-24">
          <mxGeometry relative="1" as="geometry" />
        </mxCell>
        <mxCell id="rqvPw6dg4gifr-5zR3yJ-11" value="开始对T-1周期进行复核" style="rounded=0;whiteSpace=wrap;html=1;fillColor=none;" vertex="1" parent="1">
          <mxGeometry x="195" y="570" width="170" height="30" as="geometry" />
        </mxCell>
        <mxCell id="rqvPw6dg4gifr-5zR3yJ-14" value="周期表" style="shape=internalStorage;whiteSpace=wrap;html=1;backgroundOutline=1;fillColor=none;" vertex="1" parent="1">
          <mxGeometry x="580" y="360" width="80" height="80" as="geometry" />
        </mxCell>
        <mxCell id="rqvPw6dg4gifr-5zR3yJ-16" style="edgeStyle=none;rounded=0;orthogonalLoop=1;jettySize=auto;html=1;exitX=0.5;exitY=0;exitDx=0;exitDy=0;dashed=1;" edge="1" parent="1" source="rqvPw6dg4gifr-5zR3yJ-8" target="rqvPw6dg4gifr-5zR3yJ-8">
          <mxGeometry relative="1" as="geometry" />
        </mxCell>
        <mxCell id="rqvPw6dg4gifr-5zR3yJ-26" style="edgeStyle=none;rounded=0;orthogonalLoop=1;jettySize=auto;html=1;dashed=1;" edge="1" parent="1" source="rqvPw6dg4gifr-5zR3yJ-24" target="rqvPw6dg4gifr-5zR3yJ-25">
          <mxGeometry relative="1" as="geometry" />
        </mxCell>
        <mxCell id="rqvPw6dg4gifr-5zR3yJ-28" style="edgeStyle=none;rounded=0;orthogonalLoop=1;jettySize=auto;html=1;exitX=0.5;exitY=1;exitDx=0;exitDy=0;entryX=0.5;entryY=0;entryDx=0;entryDy=0;" edge="1" parent="1" source="rqvPw6dg4gifr-5zR3yJ-24" target="rqvPw6dg4gifr-5zR3yJ-29">
          <mxGeometry relative="1" as="geometry">
            <mxPoint x="280" y="710" as="targetPoint" />
          </mxGeometry>
        </mxCell>
        <mxCell id="rqvPw6dg4gifr-5zR3yJ-24" value="持久化T-1周期的达标明细" style="rounded=0;whiteSpace=wrap;html=1;fillColor=none;" vertex="1" parent="1">
          <mxGeometry x="197.5" y="630" width="165" height="50" as="geometry" />
        </mxCell>
        <mxCell id="rqvPw6dg4gifr-5zR3yJ-25" value="达标存档表" style="shape=internalStorage;whiteSpace=wrap;html=1;backgroundOutline=1;fillColor=none;" vertex="1" parent="1">
          <mxGeometry x="630" y="615" width="80" height="80" as="geometry" />
        </mxCell>
        <mxCell id="rqvPw6dg4gifr-5zR3yJ-33" style="edgeStyle=none;rounded=0;orthogonalLoop=1;jettySize=auto;html=1;entryX=0.5;entryY=0;entryDx=0;entryDy=0;" edge="1" parent="1" source="rqvPw6dg4gifr-5zR3yJ-29" target="rqvPw6dg4gifr-5zR3yJ-32">
          <mxGeometry relative="1" as="geometry" />
        </mxCell>
        <mxCell id="rqvPw6dg4gifr-5zR3yJ-29" value="复核逻辑" style="rounded=0;whiteSpace=wrap;html=1;fillColor=none;" vertex="1" parent="1">
          <mxGeometry x="220" y="730" width="120" height="60" as="geometry" />
        </mxCell>
        <mxCell id="rqvPw6dg4gifr-5zR3yJ-31" style="edgeStyle=none;rounded=0;orthogonalLoop=1;jettySize=auto;html=1;entryX=1;entryY=0.5;entryDx=0;entryDy=0;dashed=1;" edge="1" parent="1" source="rqvPw6dg4gifr-5zR3yJ-30" target="rqvPw6dg4gifr-5zR3yJ-29">
          <mxGeometry relative="1" as="geometry" />
        </mxCell>
        <mxCell id="rqvPw6dg4gifr-5zR3yJ-30" value="闭环率档位表" style="shape=internalStorage;whiteSpace=wrap;html=1;backgroundOutline=1;fillColor=none;" vertex="1" parent="1">
          <mxGeometry x="610" y="750" width="80" height="80" as="geometry" />
        </mxCell>
        <mxCell id="rqvPw6dg4gifr-5zR3yJ-32" value="结束" style="ellipse;whiteSpace=wrap;html=1;fillColor=none;" vertex="1" parent="1">
          <mxGeometry x="233" y="830" width="97" height="40" as="geometry" />
        </mxCell>
        <mxCell id="rqvPw6dg4gifr-5zR3yJ-36" value="复核定时任务" style="text;html=1;strokeColor=none;fillColor=none;align=center;verticalAlign=middle;whiteSpace=wrap;rounded=0;" vertex="1" parent="1">
          <mxGeometry x="430" y="520" width="40" height="20" as="geometry" />
        </mxCell>
      </root>
    </mxGraphModel>
  </diagram>
</mxfile>
